<svg version="1.0" xmlns="http://www.w3.org/2000/svg"
 width="800.000000pt" height="800.000000pt" viewBox="0 0 800.000000 800.000000"
 preserveAspectRatio="xMidYMid meet">

<g transform="translate(0.000000,800.000000) scale(0.100000,-0.100000)" stroke="none">
<path d="M4019 7696 c-3 -3 -82 -8 -175 -11 -259 -8 -380 -33 -669 -142 -116
-44 -330 -139 -405 -180 -273 -149 -581 -423 -735 -653 -87 -131 -224 -391
-280 -533 -77 -196 -124 -413 -140 -647 -4 -52 -18 -151 -31 -220 -37 -193
-46 -361 -48 -950 -2 -328 -8 -613 -16 -716 -15 -209 -4 -371 41 -576 37 -168
63 -247 122 -363 59 -118 101 -173 142 -190 18 -8 118 -38 221 -66 188 -51
271 -81 322 -117 54 -38 120 -52 240 -52 112 0 116 -1 206 -41 50 -22 100 -49
111 -59 15 -13 49 -20 140 -27 84 -7 134 -16 168 -31 l47 -21 -1 -138 c-1
-154 -8 -198 -28 -198 -7 0 -39 32 -70 70 -39 48 -65 71 -82 72 -13 2 -53 8
-89 14 -57 10 -81 8 -180 -10 -63 -12 -135 -28 -160 -36 -25 -8 -86 -19 -137
-25 -86 -10 -96 -9 -171 15 -72 23 -190 44 -249 45 -15 0 -28 -10 -39 -33 -22
-43 -175 -255 -246 -342 -73 -87 -167 -169 -280 -243 -48 -31 -88 -62 -88 -69
0 -19 43 -60 75 -71 17 -6 100 -37 185 -70 212 -83 350 -123 601 -176 449 -93
970 -123 1264 -71 77 13 163 31 190 40 64 19 118 19 183 0 47 -14 57 -14 104
0 70 20 103 19 216 -9 208 -52 286 -59 562 -53 406 9 577 31 1018 128 153 34
600 191 670 235 45 29 29 55 -75 125 -54 35 -127 92 -163 125 -95 90 -259 302
-354 457 -17 28 -17 28 -94 21 -42 -4 -120 -20 -172 -36 -91 -28 -98 -28 -185
-18 -49 6 -112 17 -140 25 -27 8 -102 24 -165 36 -96 18 -123 20 -163 10 -27
-6 -66 -11 -86 -11 -35 0 -42 -5 -92 -70 -30 -38 -59 -69 -65 -70 -18 0 -64
55 -74 91 -6 18 -10 105 -10 191 l0 158 28 6 c78 17 162 46 186 65 67 53 306
119 344 95 6 -3 55 17 110 44 75 37 113 64 148 103 29 31 41 40 30 22 -10 -16
-27 -40 -38 -52 -20 -21 -20 -21 2 -28 20 -6 51 -3 252 27 95 14 194 64 246
124 47 54 111 173 166 307 55 133 120 417 150 657 9 69 20 136 26 150 5 14 18
81 29 150 15 98 21 204 27 485 10 450 8 518 -17 735 -24 205 -81 529 -109 615
-11 33 -31 119 -45 190 -32 160 -46 210 -89 311 -87 205 -196 409 -274 514
-193 259 -460 514 -727 696 -207 140 -611 254 -961 270 -82 3 -152 4 -155 0z
m-1739 -2573 c15 -111 74 -377 101 -463 36 -109 149 -340 211 -430 32 -47 94
-123 139 -170 l80 -85 -35 71 c-71 145 -130 310 -209 584 -47 162 -72 269 -65
276 3 2 28 -56 56 -129 29 -72 68 -159 87 -192 19 -33 67 -123 106 -200 85
-168 162 -287 222 -342 56 -51 99 -58 302 -48 l143 7 -35 96 c-66 180 -133
435 -118 450 5 6 11 -8 74 -190 49 -141 124 -312 156 -352 29 -37 101 -46 293
-35 97 5 178 12 180 14 2 2 -8 19 -22 37 -39 52 -112 213 -140 310 -39 135
-50 242 -42 424 8 211 19 244 35 104 15 -131 38 -258 58 -330 35 -126 95 -292
143 -402 57 -129 75 -145 147 -135 21 3 92 13 158 22 66 9 136 20 155 25 19 6
56 10 83 10 26 0 47 2 47 4 0 2 -9 24 -20 48 -19 44 -56 300 -48 336 3 9 17
-23 32 -72 38 -124 68 -188 122 -261 l46 -63 87 -6 c85 -7 179 -38 195 -65 17
-27 26 -6 27 62 1 39 4 110 8 157 7 81 7 83 16 45 6 -22 10 -164 9 -315 -1
-357 -25 -570 -89 -771 -13 -42 -36 -130 -50 -195 -15 -65 -41 -154 -57 -197
-27 -68 -39 -85 -97 -135 -248 -217 -531 -410 -683 -466 -35 -12 -96 -29 -136
-36 -71 -13 -76 -13 -158 14 -136 44 -259 114 -552 313 -264 180 -366 265
-489 409 -108 126 -229 308 -305 457 -21 43 -61 112 -87 153 -47 72 -52 76
-150 127 -67 34 -131 77 -187 127 -75 66 -92 86 -131 165 -63 124 -81 195 -89
344 -7 150 1 185 42 175 21 -5 33 1 71 37 69 67 99 117 149 246 26 65 55 136
66 157 28 54 86 218 98 274 18 86 20 92 29 92 5 0 14 -39 21 -87z m2531 -2520
c-19 -66 -114 -245 -170 -320 -34 -44 -61 -84 -61 -86 0 -3 16 -3 35 0 19 3
35 4 36 2 0 -2 4 -84 8 -181 8 -188 11 -198 68 -260 14 -14 24 -31 22 -36 -5
-12 -130 -154 -179 -202 -20 -19 -83 -77 -140 -128 -123 -109 -181 -170 -293
-306 -45 -55 -93 -112 -107 -128 l-25 -29 -70 88 c-122 154 -201 238 -361 385
-86 79 -187 178 -224 220 l-67 78 13 49 c21 84 28 316 14 471 -8 77 -11 143
-8 146 4 3 33 -12 65 -33 55 -37 121 -77 251 -150 93 -52 214 -93 285 -94 166
-4 431 143 801 444 52 43 98 83 101 88 11 17 14 9 6 -18z"/>
</g>
</svg>
