<svg version="1.0" xmlns="http://www.w3.org/2000/svg"
 width="800.000000pt" height="800.000000pt" viewBox="0 0 800.000000 800.000000"
 preserveAspectRatio="xMidYMid meet">

<g transform="translate(0.000000,800.000000) scale(0.100000,-0.100000)" stroke="none">
<path d="M3760 7444 c-473 -45 -775 -143 -1110 -362 -370 -241 -654 -561 -782
-880 -29 -74 -30 -77 -14 -107 16 -30 16 -34 -4 -86 -12 -30 -53 -139 -91
-242 l-69 -188 31 -142 c37 -173 41 -250 13 -298 -25 -42 -80 -77 -97 -60 -18
18 -62 13 -85 -12 -49 -52 -56 -89 -60 -310 -2 -115 -1 -218 2 -230 3 -13 15
-33 26 -45 18 -19 23 -42 30 -143 6 -66 14 -157 19 -202 6 -45 15 -145 21
-221 6 -90 15 -145 23 -155 8 -9 19 -49 26 -89 11 -73 135 -490 150 -505 4 -4
55 2 113 13 58 11 112 18 119 15 8 -4 30 -31 49 -62 42 -65 135 -155 193 -185
74 -37 179 -68 233 -68 66 0 124 26 124 54 0 12 -28 68 -61 126 -121 207 -207
420 -295 727 -94 334 -134 525 -150 719 -11 132 -42 152 -183 116 -126 -33
-170 -57 -191 -106 -26 -58 -40 -149 -43 -266 -2 -95 -3 -100 -23 -100 -19 0
-23 9 -33 63 -7 34 -15 102 -19 150 -7 77 -6 90 9 97 14 8 17 41 23 262 3 139
9 267 12 283 4 19 18 38 37 50 40 25 74 86 82 145 4 26 0 87 -9 143 -9 53 -16
122 -16 152 0 55 0 55 31 55 35 0 27 -15 155 295 l82 199 41 14 c40 13 52 25
146 142 56 70 214 217 352 327 203 162 369 255 577 322 396 129 872 159 1286
80 348 -66 641 -181 860 -337 127 -90 307 -266 405 -396 55 -73 92 -112 120
-127 43 -23 51 -39 195 -391 l52 -128 34 0 34 0 0 -52 c0 -29 -7 -93 -16 -143
-27 -151 -1 -262 70 -300 32 -17 34 -21 40 -93 3 -41 6 -166 6 -278 0 -196 1
-203 21 -218 21 -14 21 -20 15 -108 -10 -138 -27 -202 -52 -206 -20 -3 -21 2
-27 130 -5 126 -13 176 -39 242 -14 35 -98 77 -204 102 -61 15 -80 15 -113 5
-47 -14 -44 -4 -66 -196 -25 -230 -140 -688 -237 -945 -63 -167 -116 -283
-196 -423 -78 -138 -80 -147 -32 -172 44 -23 135 -19 220 10 135 46 215 107
296 226 26 38 53 69 59 69 7 0 58 -9 115 -21 56 -11 106 -17 110 -12 10 10
104 319 131 428 10 44 19 94 19 111 0 18 8 38 19 48 15 14 20 37 26 119 3 56
15 182 26 279 10 97 19 203 19 236 0 46 5 65 24 91 33 44 36 85 28 311 -7 181
-9 198 -32 240 -29 51 -69 72 -101 52 -26 -17 -73 7 -99 51 -31 51 -34 102 -9
217 51 246 51 210 3 345 -23 66 -64 175 -89 243 l-47 123 22 24 c30 32 23 65
-40 194 -121 247 -297 459 -546 658 -425 337 -882 498 -1449 507 -110 2 -220
2 -245 0z"/>
</g>
</svg>
