<svg version="1.0" xmlns="http://www.w3.org/2000/svg" width="800px" height="800px" viewBox="0 0 8000 8000" preserveAspectRatio="xMidYMid meet">
<g id="layer101" stroke="none">
 <path d="M3950 7085 c-36 -25 -71 -45 -77 -45 -7 0 -13 -6 -13 -12 0 -7 -25 -40 -55 -72 -30 -33 -57 -72 -60 -87 -9 -40 -43 -79 -68 -79 -32 -1 -63 -31 -100 -96 -30 -54 -106 -129 -91 -90 14 35 -26 2 -146 -126 -112 -118 -125 -135 -124 -167 0 -23 9 -48 24 -69 24 -33 25 -39 25 -195 0 -117 -5 -193 -20 -274 l-20 -111 -40 -13 c-62 -19 -108 -44 -135 -74 -14 -15 -46 -38 -72 -51 -26 -13 -69 -46 -96 -73 -27 -27 -77 -63 -110 -80 -64 -32 -133 -102 -179 -181 -14 -25 -40 -61 -57 -80 -50 -56 -111 -177 -140 -278 -14 -51 -35 -110 -46 -132 -11 -22 -20 -50 -20 -62 0 -13 -8 -44 -17 -70 -16 -45 -20 -49 -75 -67 -33 -11 -85 -37 -116 -59 -144 -98 -170 -117 -217 -157 -52 -44 -105 -132 -105 -172 0 -12 -16 -38 -35 -57 l-35 -35 0 -201 c0 -156 3 -209 15 -237 8 -19 15 -46 15 -60 0 -36 26 -80 60 -100 26 -15 30 -23 30 -59 0 -32 10 -56 45 -109 42 -64 56 -95 69 -156 3 -14 19 -45 36 -70 16 -24 33 -60 36 -79 4 -24 16 -41 37 -55 40 -26 76 -112 77 -184 l0 -54 113 6 c101 5 181 21 230 48 9 5 47 21 85 35 111 43 278 54 828 54 l480 0 30 31 c37 40 82 59 140 59 35 0 66 11 132 45 47 25 97 45 111 45 15 0 44 9 65 21 22 11 67 26 100 33 34 8 87 21 119 30 31 9 82 23 112 31 36 11 65 27 87 50 27 29 40 35 74 35 25 0 51 7 65 18 13 10 45 29 71 41 56 27 132 108 161 171 25 54 35 198 43 619 4 240 3 290 -10 329 -10 27 -16 82 -17 136 -1 232 -56 555 -99 581 -5 3 -10 38 -10 77 0 66 -4 80 -55 187 -30 64 -63 130 -72 146 -9 17 -32 59 -50 94 -18 36 -43 75 -55 89 -25 26 -89 62 -111 62 -23 0 -27 33 -27 230 0 201 0 199 61 265 15 17 28 35 29 40 0 6 5 11 10 11 6 1 15 2 20 3 12 1 14 71 2 71 -4 0 -13 9 -20 21 -9 14 -9 19 -2 14 34 -21 -28 61 -77 102 -80 66 -127 116 -189 199 -63 85 -195 210 -285 270 -37 24 -96 73 -133 109 -36 36 -72 65 -79 65 -6 0 -41 -20 -77 -45z"/>
 </g>

</svg>